<svg width="88" height="88" viewBox="0 0 88 88" fill="none" xmlns="http://www.w3.org/2000/svg">
<path d="M12.2481 33.2653L12.2486 39.1426H10L10 29.4283H19.7143V31.6764H13.837L19.7143 37.5537V39.1426H18.1254L12.2481 33.2653Z" fill="#7C8583"/>
<path d="M12.2481 13.8366L12.2486 19.7139H10V9.99958H19.7143V12.2477H13.837L19.7143 18.1249V19.7139H18.1254L12.2481 13.8366Z" fill="#7C8583"/>
<path d="M21.9629 23.5514L21.9634 29.4287H19.7148V19.7144H29.4291V21.9625H23.5519L29.4291 27.8398V29.4287H27.8402L21.9629 23.5514Z" fill="#7C8583"/>
<path d="M12.2481 52.694L12.2486 58.5713H10L10 48.857H19.7143V51.1051H13.837L19.7143 56.9824V58.5713H18.1254L12.2481 52.694Z" fill="#7C8583"/>
<path d="M21.9629 42.9802L21.9634 48.8574H19.7148V39.1431H29.4291V41.3912H23.5519L29.4291 47.2685V48.8574H27.8402L21.9629 42.9802Z" fill="#7C8583"/>
<path d="M31.6758 33.2653L31.6763 39.1426H29.4277V29.4283H39.142V31.6764H33.2648L39.142 37.5537V39.1426H37.5531L31.6758 33.2653Z" fill="#7C8583"/>
<path d="M31.6758 13.8366L31.6763 19.7139H29.4277V9.99958H39.142V12.2477H33.2648L39.142 18.1249V19.7139H37.5531L31.6758 13.8366Z" fill="#7C8583"/>
<path d="M41.3907 23.5514L41.3912 29.4287H39.1426V19.7144H48.8569V21.9625H42.9796L48.8569 27.8398V29.4287H47.2679L41.3907 23.5514Z" fill="#7C8583"/>
<path d="M21.9629 62.4089L21.9634 68.2861H19.7148V58.5718H29.4291V60.8199H23.5519L29.4291 66.6972V68.2861H27.8402L21.9629 62.4089Z" fill="#7C8583"/>
<path d="M31.6758 72.1227L31.6763 78H29.4277V68.2857H39.142V70.5338H33.2648L39.142 76.4111V78H37.5531L31.6758 72.1227Z" fill="#7C8583"/>
<path d="M31.6758 52.694L31.6763 58.5713H29.4277V48.857H39.142V51.1051H33.2648L39.142 56.9824V58.5713H37.5531L31.6758 52.694Z" fill="#7C8583"/>
<path d="M41.3907 62.4089L41.3912 68.2861H39.1426V58.5718H48.8569V60.8199H42.9796L48.8569 66.6972V68.2861H47.2679L41.3907 62.4089Z" fill="#7C8583"/>
<path d="M51.1055 72.1227L51.106 78H48.8574V68.2857H58.5717V70.5338H52.6944L58.5717 76.4111V78H56.9828L51.1055 72.1227Z" fill="#7C8583"/>
<path d="M51.1055 52.694L51.106 58.5713H48.8574V48.857H58.5717V51.1051H52.6944L58.5717 56.9824V58.5713H56.9828L51.1055 52.694Z" fill="#7C8583"/>
<path d="M60.8204 62.4089L60.8209 68.2861H58.5723V58.5718H68.2866V60.8199H62.4093L68.2866 66.6972V68.2861H66.6976L60.8204 62.4089Z" fill="#7C8583"/>
<path d="M51.1055 33.2653L51.106 39.1426H48.8574V29.4283H58.5717V31.6764H52.6944L58.5717 37.5537V39.1426H56.9828L51.1055 33.2653Z" fill="#7C8583"/>
<path d="M41.3907 42.9802L41.3912 48.8574H39.1426V39.1431H48.8569V41.3912H42.9796L48.8569 47.2685V48.8574H47.2679L41.3907 42.9802Z" fill="#7C8583"/>
<path d="M51.1055 13.8366L51.106 19.7139H48.8574V9.99958H58.5717V12.2477H52.6944L58.5717 18.1249V19.7139H56.9828L51.1055 13.8366Z" fill="#7C8583"/>
<path d="M70.5332 33.2653L70.5337 39.1426H68.2852V29.4283H77.9994V31.6764H72.1222L77.9994 37.5537V39.1426H76.4105L70.5332 33.2653Z" fill="#7C8583"/>
<path d="M70.5332 52.694L70.5337 58.5713H68.2852V48.857H77.9994V51.1051H72.1222L77.9994 56.9824V58.5713H76.4105L70.5332 52.694Z" fill="#7C8583"/>
<path d="M70.5332 72.1227L70.5337 78H68.2852V68.2857H77.9994V70.5338H72.1222L77.9994 76.4111V78H76.4105L70.5332 72.1227Z" fill="#7C8583"/>
<path d="M60.8204 42.9802L60.8209 48.8574H58.5723V39.1431H68.2866V41.3912H62.4093L68.2866 47.2685V48.8574H66.6976L60.8204 42.9802Z" fill="#7C8583"/>
<path d="M12.2481 72.1227L12.2486 78H10V68.2857H19.7143V70.5338H13.837L19.7143 76.4111V78H18.1254L12.2481 72.1227Z" fill="#7C8583"/>
<path d="M60.8204 23.5514L60.8209 29.4287H58.5723V19.7144H68.2866V21.9625H62.4093L68.2866 27.8398V29.4287H66.6976L60.8204 23.5514Z" fill="#7C8583"/>
<path d="M84.0501 2.31421L78 2.31473V0H88V10H85.6858V3.94987L79.6357 10H78V8.36434L84.0501 2.31421Z" fill="#FA4616"/>
</svg>
